<?xml version="1.0" standalone="no"?>
<!DOCTYPE svg PUBLIC "-//W3C//DTD SVG 20010904//EN"
 "http://www.w3.org/TR/2001/REC-SVG-20010904/DTD/svg10.dtd">
<svg version="1.0" xmlns="http://www.w3.org/2000/svg"
 width="1024.000000pt" height="1024.000000pt" viewBox="0 0 1024.000000 1024.000000"
 preserveAspectRatio="xMidYMid meet">
<metadata>
Written by Dev
</metadata>
<g transform="translate(0.000000,1024.000000) scale(0.100000,-0.100000)"
fill="#FFFFFF" stroke="none">
<path d="M3765 10211 c-408 -106 -745 -233 -1100 -415 -800 -410 -1453 -998
-1949 -1753 -132 -202 -218 -353 -327 -578 -139 -288 -239 -555 -341 -910
l-43 -150 -3 -1262 -2 -1261 40 -159 c188 -727 547 -1428 1032 -2008 601 -720
1398 -1265 2288 -1565 96 -33 245 -78 330 -102 l155 -43 1275 0 1275 0 155 43
c852 236 1560 629 2195 1219 447 416 829 937 1106 1508 148 307 266 627 349
948 l40 159 -2 1261 -3 1262 -43 150 c-102 355 -202 622 -341 910 -498 1028
-1303 1845 -2321 2354 -310 154 -600 266 -975 373 l-150 43 -1265 2 -1265 2
-110 -28z m1875 -95 c1410 -155 2654 -862 3502 -1991 480 -638 799 -1386 932
-2185 49 -291 61 -450 61 -820 0 -370 -12 -529 -61 -820 -203 -1218 -841
-2311 -1801 -3087 -1065 -862 -2421 -1245 -3795 -1073 -1744 218 -3264 1363
-3967 2988 -164 378 -277 762 -345 1172 -78 468 -87 988 -26 1468 222 1742
1368 3262 2985 3960 542 234 1052 356 1690 406 121 9 687 -3 825 -18z"/>
<path d="M4827 9479 c-1028 -66 -2012 -507 -2756 -1234 -752 -736 -1191 -1652
-1302 -2720 -27 -260 -15 -743 27 -1030 102 -709 393 -1414 816 -1979 206
-274 519 -599 774 -803 664 -530 1428 -844 2286 -939 213 -24 685 -24 896 -1
625 70 1196 253 1718 552 166 95 409 261 568 388 174 139 500 460 628 617 577
711 894 1476 989 2385 27 260 15 743 -27 1030 -203 1412 -1094 2643 -2377
3286 -680 341 -1462 498 -2240 448z m2943 -2754 l0 -665 -240 0 -240 0 0 420
0 420 -730 0 -730 0 0 -2195 0 -2195 350 0 350 0 0 -215 0 -215 -1395 0 -1395
0 0 215 0 215 350 0 350 0 0 2195 0 2195 -725 0 -725 0 0 -420 0 -420 -245 0
-245 0 0 665 0 665 2635 0 2635 0 0 -665z"/>
</g>
</svg>
