<svg xmlns="http://www.w3.org/2000/svg" viewBox="0 0 527.21 262.6"><defs><style>.cls-1{isolation:isolate;}.cls-2{fill:#FFF;}.cls-2,.cls-3,.cls-4{fill-rule:evenodd;}.cls-3{fill:#ca312c;}.cls-4{fill:#91b949;}</style></defs><title>cp_logoAsset 2</title><g id="Layer_2" data-name="Layer 2"><g id="coinpaprika_copy_15" data-name="coinpaprika copy 15" class="cls-1"><path class="cls-2" d="M30.19,236.07a27.91,27.91,0,0,1-3.09.57,23.68,23.68,0,0,1-2.94.2,14,14,0,0,1-5.22-.94,11,11,0,0,1-4-2.7,12,12,0,0,1-2.59-4.29,16.62,16.62,0,0,1-.92-5.7,17.76,17.76,0,0,1,.85-5.59,12.16,12.16,0,0,1,2.46-4.33,11.28,11.28,0,0,1,4-2.79,13.41,13.41,0,0,1,5.31-1,26.49,26.49,0,0,1,6,.74,26.5,26.5,0,0,1,5.85,2.09V202a42.13,42.13,0,0,0-5.29-1.15,48.68,48.68,0,0,0-7.24-.46,26.45,26.45,0,0,0-9.56,1.66,20.43,20.43,0,0,0-12,12.06A26.24,26.24,0,0,0,0,223.74a28.05,28.05,0,0,0,1.54,9.66A18.11,18.11,0,0,0,13.1,244.67a28.94,28.94,0,0,0,9.45,1.44,39.64,39.64,0,0,0,7-.61A33.52,33.52,0,0,0,36,243.63v-9.45a28.51,28.51,0,0,1-2.81,1C32.23,235.55,31.21,235.83,30.19,236.07Zm53.38-30.14A17.22,17.22,0,0,0,77,201.6a25,25,0,0,0-8.84-1.46A23.67,23.67,0,0,0,59,201.82a19.13,19.13,0,0,0-6.85,4.72,20.84,20.84,0,0,0-4.31,7.36,28.94,28.94,0,0,0-1.5,9.57,31.67,31.67,0,0,0,1.43,10,19,19,0,0,0,4.14,7.14,17.14,17.14,0,0,0,6.57,4.29,25.09,25.09,0,0,0,8.79,1.44,23.7,23.7,0,0,0,9.23-1.7,18.8,18.8,0,0,0,6.83-4.79,21.12,21.12,0,0,0,4.27-7.42,29.32,29.32,0,0,0,1.48-9.56,31.12,31.12,0,0,0-1.41-9.81A19.13,19.13,0,0,0,83.57,205.93Zm-6.13,22.72a14.3,14.3,0,0,1-1.83,4.46,8.52,8.52,0,0,1-3.18,3,9.4,9.4,0,0,1-4.61,1.07,9.22,9.22,0,0,1-7.62-3.5q-2.79-3.51-2.79-10.43a24,24,0,0,1,.59-5.4,13.3,13.3,0,0,1,1.85-4.41,9.21,9.21,0,0,1,3.22-3,9.72,9.72,0,0,1,4.75-1.08c3.36,0,5.91,1.15,7.63,3.46S78,218.54,78,223.13A24.2,24.2,0,0,1,77.44,228.65Zm35-34.75a7,7,0,0,0,5,2,6.87,6.87,0,0,0,2.74-.54,7,7,0,0,0,2.2-1.48,6.72,6.72,0,0,0,1.46-2.2,7.06,7.06,0,0,0-1.46-7.62,6.62,6.62,0,0,0-2.2-1.5,6.87,6.87,0,0,0-2.74-.54,7.07,7.07,0,0,0-2.76.54,6.7,6.7,0,0,0-2.22,1.5A7.08,7.08,0,0,0,111,186.3a7.27,7.27,0,0,0,0,5.4A6.88,6.88,0,0,0,112.41,193.9Zm11,7.2H100.07v8.27h12.49v27.68h-14v8.27H136.2v-8.27H123.44Zm57.46,3.29a11.43,11.43,0,0,0-4.22-3.14,14.64,14.64,0,0,0-5.92-1.11,17,17,0,0,0-4.4.53,14.46,14.46,0,0,0-3.65,1.5,16,16,0,0,0-3.16,2.37,31.23,31.23,0,0,0-2.81,3.09l-.26-6.53H147.3v44.22h10.62v-28a37.44,37.44,0,0,1,5.2-5.92,7.72,7.72,0,0,1,5.16-2.18q5.4,0,5.4,7.27v28.81H184.3V215.64a22.54,22.54,0,0,0-.85-6.38A13.45,13.45,0,0,0,180.9,204.39Zm50.95,1.78a14.17,14.17,0,0,0-5.11-4.46,15.12,15.12,0,0,0-7-1.57,17,17,0,0,0-4.4.53,14.46,14.46,0,0,0-3.65,1.5,16.31,16.31,0,0,0-3.16,2.37,31.23,31.23,0,0,0-2.81,3.09l-.26-6.53h-9.18v61.5h10.62V245.32a22.91,22.91,0,0,0,3,.57,24.64,24.64,0,0,0,3.31.22,28,28,0,0,0,9.1-1.42,19.21,19.21,0,0,0,7.25-4.35,20.07,20.07,0,0,0,4.78-7.38,29,29,0,0,0,1.72-10.53,36.48,36.48,0,0,0-1.08-9.25A21.43,21.43,0,0,0,231.85,206.17Zm-7.68,22.9a14.14,14.14,0,0,1-2.24,4.68,10.33,10.33,0,0,1-3.53,3,10.12,10.12,0,0,1-4.59,1,23.58,23.58,0,0,1-3.77-.3,16.86,16.86,0,0,1-3.11-.79V217.34a37.44,37.44,0,0,1,5.2-5.92,7.72,7.72,0,0,1,5.16-2.18,6.68,6.68,0,0,1,3.24.76,6.33,6.33,0,0,1,2.4,2.42,13.74,13.74,0,0,1,1.5,4.22,32.42,32.42,0,0,1,.52,6.22A22.83,22.83,0,0,1,224.17,229.07Zm53.52-25.18a15.23,15.23,0,0,0-5.81-2.81,33.06,33.06,0,0,0-8.45-.94,44.27,44.27,0,0,0-8.64.83,42.45,42.45,0,0,0-7.34,2.09v8.49a40.13,40.13,0,0,1,7.38-2.51,34.08,34.08,0,0,1,7.73-.89,14.7,14.7,0,0,1,4.18.52,7.4,7.4,0,0,1,2.76,1.48,5.59,5.59,0,0,1,1.55,2.33,9.28,9.28,0,0,1,.48,3.07v2.66h-5.79a37,37,0,0,0-9.56,1.09,21.06,21.06,0,0,0-6.79,3,12.32,12.32,0,0,0-4,4.57,12.7,12.7,0,0,0-1.33,5.79,16.48,16.48,0,0,0,.89,5.57,11.59,11.59,0,0,0,2.63,4.31,11.92,11.92,0,0,0,4.31,2.78,16.3,16.3,0,0,0,6,1,20.51,20.51,0,0,0,4.72-.51,17.85,17.85,0,0,0,4-1.41,18.6,18.6,0,0,0,3.35-2.15,31.05,31.05,0,0,0,2.92-2.72l.26,5.78h9.1v-30.2a18.16,18.16,0,0,0-1.09-6.55A11.11,11.11,0,0,0,277.69,203.89Zm-6.16,27.81a33.66,33.66,0,0,1-5.27,4.61,8.26,8.26,0,0,1-4.62,1.61,7.32,7.32,0,0,1-4.74-1.41,5,5,0,0,1-1.74-4.11,6.14,6.14,0,0,1,.54-2.55,5.72,5.72,0,0,1,1.72-2.11,8.74,8.74,0,0,1,3.05-1.44,17.11,17.11,0,0,1,4.57-.52h6.49Zm58.34-25.53a14.09,14.09,0,0,0-5.11-4.46,15.07,15.07,0,0,0-7-1.57,16.93,16.93,0,0,0-4.39.53,14.38,14.38,0,0,0-3.66,1.5,16.25,16.25,0,0,0-3.15,2.37,30,30,0,0,0-2.81,3.09l-.26-6.53h-9.19v61.5H305V245.32a22.76,22.76,0,0,0,3,.57,24.43,24.43,0,0,0,3.31.22,28,28,0,0,0,9.09-1.42,19.14,19.14,0,0,0,7.25-4.35A20.08,20.08,0,0,0,332.4,233a29,29,0,0,0,1.72-10.53,36.46,36.46,0,0,0-1.09-9.25A21.22,21.22,0,0,0,329.87,206.17Zm-7.68,22.9a14,14,0,0,1-2.24,4.68,10.23,10.23,0,0,1-3.53,3,10.09,10.09,0,0,1-4.59,1,23.45,23.45,0,0,1-3.76-.3,17,17,0,0,1-3.12-.79V217.34a37.44,37.44,0,0,1,5.21-5.92,7.7,7.7,0,0,1,5.15-2.18,6.75,6.75,0,0,1,3.25.76,6.31,6.31,0,0,1,2.39,2.42,13.48,13.48,0,0,1,1.5,4.22,31.55,31.55,0,0,1,.53,6.22A22.82,22.82,0,0,1,322.19,229.07Zm57-24.36a11.25,11.25,0,0,0-4.36-3.41,14.41,14.41,0,0,0-5.94-1.16,18,18,0,0,0-4.48.53,13.81,13.81,0,0,0-3.72,1.5,15.12,15.12,0,0,0-3,2.33,18,18,0,0,0-2.46,3l-.39-6.44h-9.62v44.22H356v-28a27.82,27.82,0,0,1,5.51-6.38,8,8,0,0,1,4.85-1.94,5.3,5.3,0,0,1,2.4.53,4.39,4.39,0,0,1,1.76,1.65,7.93,7.93,0,0,1,1,2.87,19.3,19.3,0,0,1,.24,4.22h10.67a29.13,29.13,0,0,0-.72-7.9A15.15,15.15,0,0,0,379.15,204.71Zm27.33-10.81a7.25,7.25,0,0,0,2.22,1.48,7.09,7.09,0,0,0,2.77.54,6.87,6.87,0,0,0,2.74-.54,7.28,7.28,0,0,0,2.2-1.48,6.69,6.69,0,0,0,1.45-2.2,7.14,7.14,0,0,0,0-5.4,6.8,6.8,0,0,0-6.39-4.26,7.09,7.09,0,0,0-2.77.54,6.8,6.8,0,0,0-2.22,1.5A6.88,6.88,0,0,0,405,186.3a7.14,7.14,0,0,0,0,5.4A6.69,6.69,0,0,0,406.48,193.9Zm11,7.2H394.14v8.27h12.49v27.68h-14v8.27h37.65v-8.27H417.52Zm63.64,0H467.88l-15.45,18.72v-36H441.81v61.5h10.62V223.21l16.32,22.11h13.88l-19.41-24.07Zm45,7.47a11,11,0,0,0-3.38-4.68,15.08,15.08,0,0,0-5.81-2.81,32.87,32.87,0,0,0-8.44-.94,44.27,44.27,0,0,0-8.64.83,42.07,42.07,0,0,0-7.33,2.09v8.49a40,40,0,0,1,7.37-2.51,34.08,34.08,0,0,1,7.73-.89,14.7,14.7,0,0,1,4.18.52,7.4,7.4,0,0,1,2.76,1.48,5.59,5.59,0,0,1,1.55,2.33,9.28,9.28,0,0,1,.48,3.07v2.66H510.8a37.1,37.1,0,0,0-9.56,1.09,21.16,21.16,0,0,0-6.79,3,12.44,12.44,0,0,0-4.05,4.57,12.82,12.82,0,0,0-1.32,5.79,16.48,16.48,0,0,0,.89,5.57,11.59,11.59,0,0,0,2.63,4.31,11.92,11.92,0,0,0,4.31,2.78,16.28,16.28,0,0,0,6,1,20.54,20.54,0,0,0,4.73-.51,17.85,17.85,0,0,0,4-1.41,18.25,18.25,0,0,0,3.35-2.15,31.05,31.05,0,0,0,2.92-2.72l.26,5.78h9.1v-30.2A18.16,18.16,0,0,0,526.12,208.57Zm-9.53,23.13a33.21,33.21,0,0,1-5.27,4.61,8.28,8.28,0,0,1-4.61,1.61,7.33,7.33,0,0,1-4.75-1.41,5,5,0,0,1-1.74-4.11,6,6,0,0,1,.55-2.55,5.59,5.59,0,0,1,1.71-2.11,8.83,8.83,0,0,1,3-1.44,17.16,17.16,0,0,1,4.57-.52h6.49Z"/></g><g id="Shape_6_copy_20" data-name="Shape 6 copy 20" class="cls-1"><g id="Shape_6_copy_20-2" data-name="Shape 6 copy 20"><path class="cls-3" d="M323,44c-1.27-3.41-2.66-6.25-4.82-8.19-10-11.13-19.19-15.33-34.41-8.29l-.76,0c-6.61,1.08-9.94,3.44-12.18,9.89-5.61,16.14-11.64,32.13-17.5,48.18h0c-.87,1.17-1.75,2.33-2.62,3.49-10.78,7.92-21.2,15.28-36.15,9.22-5.49-2.23-14.42-1.55-9.74,9.66.51,1.67,1.13,3.16,2.25,3.75.69,1.3,4.07,3.2,5,3.77,20.95,13.67,43.92,16.55,66.06,5.89,25.16-12.12,43.43-31.23,45.3-61.19C324.05,53.59,324.22,48,323,44Z"/></g></g><g id="Shape_7_copy_20" data-name="Shape 7 copy 20" class="cls-1"><g id="Shape_7_copy_20-2" data-name="Shape 7 copy 20"><path class="cls-4" d="M314,28.22c-.09-4.61.87-8.45,1.35-12.48C316.66,5,310.94.32,306.16,0a15.22,15.22,0,0,0-11.71,4.6c-1.28,1.41-1.89,3.92-.26,5.65,2.09,2.23,4,2.19,5.21-2.44,2-7.49,10.7.11,10.46,3.82-.47,7.57-6,10.44-10.74,13.72-5.09,3.49-9.67,3.65-17.4,6.38-1.61.57-1.89,3-.27,4.43a19.13,19.13,0,0,0,6,.09c6.38-1,8.35.85,10.33,7.17,3.92-2.06,10.15-2.54,12.42-1.73,4.22,1.52,4.26,4.11,5.69,5.94a1.83,1.83,0,0,0,2.39-1.83C314.49,38.79,314.16,34.56,314,28.22Z"/></g></g></g></svg>