<?xml version="1.0" encoding="iso-8859-1"?>
<!-- Generator: Adobe Illustrator 19.0.0, SVG Export Plug-In . SVG Version: 6.00 Build 0)  -->
<svg version="1.1" id="Capa_1" xmlns="http://www.w3.org/2000/svg" xmlns:xlink="http://www.w3.org/1999/xlink" x="0px" y="0px"
	 viewBox="0 0 512 512" style="enable-background:new 0 0 512 512;" xml:space="preserve">
<path style="fill:#EE6482;" d="M507.484,124.798l-248-120C254.259,2.27,248,6.21,248,12v65.223l-89.315,14.886
	c-3.239,0.54-5.88,3.094-6.527,6.314c-0.687,3.42,0.992,6.987,4.069,8.632l344,184c1.181,0.631,2.478,0.945,3.773,0.945
	c1.425,0,2.849-0.381,4.111-1.138c2.412-1.445,3.889-4.051,3.889-6.862V132C512,128.932,510.246,126.134,507.484,124.798z"/>
<path style="fill:#DE5762;" d="M507.484,124.798L472.767,108H157.994l342.233,183.055c1.181,0.631,2.478,0.945,3.773,0.945
	c1.425,0,2.849-0.381,4.111-1.138c2.412-1.445,3.889-4.051,3.889-6.862V132C512,128.932,510.246,126.134,507.484,124.798z"/>
<path style="fill:#EE6482;" d="M355.773,404.945l-344-184c-2.479-1.325-5.474-1.253-7.885,0.192C1.477,222.583,0,225.188,0,228v152
	c0,3.067,1.754,5.865,4.516,7.201l248,120C257.747,509.733,264,505.783,264,500v-65.223l89.315-14.886
	c3.239-0.54,5.88-3.094,6.527-6.314C360.53,410.157,358.85,406.591,355.773,404.945z"/>
<path style="fill:#DE5762;" d="M11.773,220.945c-2.479-1.325-5.474-1.253-7.885,0.192C1.477,222.583,0,225.188,0,228v152
	c0,3.067,1.754,5.865,4.516,7.201l34.029,16.465h314.839L11.773,220.945z"/>
<path style="fill:#F1839B;" d="M504,124H8c-4.418,0-8,3.582-8,8v248c0,4.418,3.582,8,8,8h496c4.418,0,8-3.582,8-8V132
	C512,127.582,508.418,124,504,124z"/>
<g>
	<path style="fill:#FFFFFF;" d="M366,319.5h-70c-4.143,0-7.5-3.357-7.5-7.5V192c0-4.143,3.357-7.5,7.5-7.5s7.5,3.357,7.5,7.5v112.5
		H366c4.143,0,7.5,3.357,7.5,7.5S370.143,319.5,366,319.5z"/>
	<path style="fill:#FFFFFF;" d="M262.923,309.115l-50-120c-1.164-2.795-3.896-4.615-6.923-4.615s-5.759,1.82-6.923,4.615l-50,120
		c-1.594,3.823,0.215,8.215,4.038,9.808c3.824,1.597,8.215-0.216,9.808-4.038L186,259.5l0,0h40l0,0l23.077,55.385
		c1.677,4.026,6.581,5.776,10.439,3.739C262.896,316.839,264.392,312.639,262.923,309.115z M192.25,244.5l13.75-33l13.75,33H192.25z
		"/>
	<path style="fill:#FFFFFF;" d="M96,244.5H86c-12.406,0-22.5-10.094-22.5-22.5s10.094-22.5,22.5-22.5h40c4.143,0,7.5-3.357,7.5-7.5
		s-3.357-7.5-7.5-7.5h-22.5V172c0-4.143-3.357-7.5-7.5-7.5s-7.5,3.357-7.5,7.5v12.5H86c-20.678,0-37.5,16.822-37.5,37.5
		s16.822,37.5,37.5,37.5h10c12.406,0,22.5,10.094,22.5,22.5s-10.094,22.5-22.5,22.5H56c-4.143,0-7.5,3.357-7.5,7.5
		s3.357,7.5,7.5,7.5h32.5V332c0,4.143,3.357,7.5,7.5,7.5s7.5-3.357,7.5-7.5v-13.255c17.096-3.484,30-18.635,30-36.745
		C133.5,261.322,116.678,244.5,96,244.5z"/>
	<path style="fill:#FFFFFF;" d="M456,304.5h-30c-12.406,0-22.5-10.094-22.5-22.5v-22.5H446c4.143,0,7.5-3.357,7.5-7.5
		s-3.357-7.5-7.5-7.5h-42.5V222c0-12.406,10.094-22.5,22.5-22.5h30c4.143,0,7.5-3.357,7.5-7.5s-3.357-7.5-7.5-7.5h-30
		c-20.678,0-37.5,16.822-37.5,37.5v60c0,20.678,16.822,37.5,37.5,37.5h30c4.143,0,7.5-3.357,7.5-7.5S460.143,304.5,456,304.5z"/>
</g>
<g>
</g>
<g>
</g>
<g>
</g>
<g>
</g>
<g>
</g>
<g>
</g>
<g>
</g>
<g>
</g>
<g>
</g>
<g>
</g>
<g>
</g>
<g>
</g>
<g>
</g>
<g>
</g>
<g>
</g>
</svg>
